<svg width="80" height="42" viewBox="0 0 140 72" fill="none" xmlns="http://www.w3.org/2000/svg">
<path d="M42.806 40.84C39.67 40.584 37.206 39.288 35.414 36.952C33.622 34.584 32.39 31.464 31.718 27.592C31.462 26.216 31.286 24.808 31.19 23.368C31.126 21.928 31.078 20.504 31.046 19.096C31.014 17.656 30.998 16.248 30.998 14.872C30.998 13.464 30.982 12.104 30.95 10.792C29.99 10.92 29.158 11.592 28.454 12.808C27.75 13.992 27.142 15.464 26.63 17.224C26.15 18.952 25.75 20.84 25.43 22.888C25.11 24.904 24.822 26.824 24.566 28.648C24.342 30.44 24.15 32.008 23.99 33.352C23.83 34.664 23.67 35.464 23.51 35.752C23.318 36.2 22.998 36.552 22.55 36.808C22.102 37.064 21.606 37.208 21.062 37.24C20.55 37.304 20.022 37.256 19.478 37.096C18.966 36.968 18.55 36.728 18.23 36.376C17.462 35.544 16.87 34.44 16.454 33.064C16.038 31.656 15.798 30.248 15.734 28.84C15.606 25.448 15.35 21.992 14.966 18.472C14.614 14.92 14.07 11.512 13.334 8.248C13.11 8.408 12.87 8.584 12.614 8.776C12.39 8.936 12.15 9.192 11.894 9.544C11.67 9.864 11.414 10.296 11.126 10.84C10.87 11.384 10.598 12.088 10.31 12.952C10.086 13.624 9.87805 14.552 9.68605 15.736C9.49405 16.92 9.31805 18.232 9.15805 19.672C9.03005 21.112 8.90205 22.616 8.77405 24.184C8.67805 25.752 8.58205 27.256 8.48605 28.696C8.42205 30.104 8.35805 31.384 8.29405 32.536C8.26205 33.656 8.23005 34.52 8.19805 35.128C8.16605 35.608 7.91005 36.008 7.43005 36.328C6.98205 36.616 6.45405 36.776 5.84605 36.808C5.23805 36.84 4.63005 36.728 4.02205 36.472C3.41405 36.216 2.96605 35.784 2.67805 35.176C2.23005 34.28 1.94205 33.288 1.81405 32.2C1.68605 31.08 1.63805 29.944 1.67005 28.792C1.73405 27.64 1.84605 26.504 2.00605 25.384C2.19805 24.264 2.37405 23.208 2.53405 22.216C2.66205 21.352 2.85405 20.248 3.11005 18.904C3.36605 17.528 3.68605 16.104 4.07005 14.632C4.48605 13.128 4.98205 11.656 5.55805 10.216C6.13405 8.776 6.82205 7.544 7.62205 6.52C8.42205 5.464 9.35005 4.712 10.406 4.264C11.494 3.816 12.71 3.832 14.054 4.312C14.918 4.632 15.654 5.336 16.262 6.424C16.87 7.512 17.366 8.824 17.75 10.36C18.134 11.896 18.422 13.576 18.614 15.4C18.838 17.192 18.998 18.952 19.094 20.68C19.19 22.408 19.238 24.008 19.238 25.48C19.27 26.952 19.302 28.12 19.334 28.984C19.59 28.312 19.878 27.4 20.198 26.248C20.55 25.064 20.934 23.768 21.35 22.36C21.798 20.92 22.278 19.448 22.79 17.944C23.334 16.408 23.926 14.952 24.566 13.576C25.206 12.168 25.894 10.904 26.63 9.784C27.366 8.664 28.15 7.816 28.982 7.24C29.814 6.664 30.694 6.424 31.622 6.52C32.582 6.584 33.59 7.112 34.646 8.104C35.35 8.776 35.926 9.864 36.374 11.368C36.854 12.84 37.254 14.52 37.574 16.408C37.926 18.296 38.23 20.28 38.486 22.36C38.742 24.44 38.998 26.392 39.254 28.216C39.542 30.04 39.846 31.64 40.166 33.016C40.486 34.36 40.902 35.272 41.4141 35.752C42.182 36.52 42.918 37 43.6221 37.192C44.326 37.416 44.95 37.544 45.494 37.576C46.038 37.608 46.502 37.624 46.886 37.624C47.302 37.624 47.59 37.8 47.75 38.152C47.878 38.44 47.83 38.744 47.6061 39.064C47.414 39.416 47.094 39.72 46.646 39.976C46.198 40.264 45.638 40.488 44.9661 40.648C44.294 40.84 43.574 40.904 42.806 40.84ZM56.1748 16.696C56.0788 17.112 55.8068 17.464 55.3588 17.752C54.9108 18.008 54.3988 18.28 53.8228 18.568C53.2468 18.856 52.6548 19.176 52.0468 19.528C51.4388 19.88 50.9268 20.344 50.5108 20.92C49.8708 21.848 49.4228 22.952 49.1668 24.232C48.9108 25.512 48.7828 26.744 48.7828 27.928C48.8148 29.08 48.9588 30.088 49.2148 30.952C49.5028 31.784 49.8548 32.2 50.2708 32.2C50.7828 32.2 51.3108 31.96 51.8548 31.48C52.4308 31 52.9428 30.456 53.3908 29.848C53.8388 29.208 54.2068 28.568 54.4948 27.928C54.7828 27.256 54.9268 26.744 54.9268 26.392C54.9268 26.04 54.9108 25.56 54.8788 24.952C54.8468 24.312 54.8468 23.688 54.8788 23.08C54.9428 22.472 55.0388 21.944 55.1668 21.496C55.3268 21.048 55.5828 20.808 55.9348 20.776C56.2868 20.744 56.7028 20.664 57.1828 20.536C57.6948 20.408 58.1748 20.392 58.6228 20.488C59.0708 20.584 59.4228 20.904 59.6788 21.448C59.9668 21.96 60.0788 22.856 60.0148 24.136C59.9188 26.728 60.0468 28.696 60.3988 30.04C60.7508 31.352 61.4388 32.12 62.4628 32.344C63.1668 32.472 63.7908 32.312 64.3348 31.864C64.9108 31.384 65.4228 30.856 65.8708 30.28C66.3188 29.704 66.7028 29.192 67.0228 28.744C67.3428 28.264 67.5988 28.072 67.7908 28.168C68.0148 28.264 68.0948 28.664 68.0308 29.368C67.9668 30.072 67.7268 30.872 67.3108 31.768C66.8948 32.632 66.2708 33.512 65.4388 34.408C64.6388 35.272 63.5988 35.944 62.3188 36.424C61.6468 36.68 61.0228 36.808 60.4468 36.808C59.8708 36.808 59.3428 36.728 58.8628 36.568C58.4148 36.408 58.0148 36.184 57.6628 35.896C57.3108 35.608 56.9908 35.288 56.7028 34.936C56.0628 34.136 55.5508 33.144 55.1668 31.96C54.8468 32.728 54.3988 33.4 53.8228 33.976C53.3428 34.488 52.7188 34.968 51.9508 35.416C51.1828 35.832 50.2388 36.072 49.1188 36.136C47.9988 36.168 46.9428 35.816 45.9508 35.08C44.9588 34.344 44.1588 33.352 43.5508 32.104C42.9748 30.856 42.6548 29.416 42.5908 27.784C42.5588 26.12 42.9268 24.376 43.6948 22.552C44.2068 21.368 44.8788 20.36 45.7108 19.528C46.5428 18.696 47.4228 18.024 48.3508 17.512C49.3108 16.968 50.2548 16.584 51.1828 16.36C52.1428 16.104 52.9908 15.96 53.7268 15.928C54.4948 15.896 55.1028 15.96 55.5508 16.12C56.0308 16.248 56.2388 16.44 56.1748 16.696ZM64.814 18.232C64.462 18.04 64.142 17.928 63.854 17.896C63.566 17.864 63.31 17.848 63.086 17.848C62.83 17.848 62.622 17.832 62.462 17.8C62.27 17.736 62.11 17.576 61.982 17.32C61.886 17.096 62.046 16.792 62.462 16.408C62.846 16.024 63.374 15.704 64.046 15.448C64.718 15.192 65.47 15.096 66.302 15.16C67.134 15.192 67.934 15.512 68.702 16.12C69.374 16.696 69.918 17.256 70.334 17.8C70.782 18.312 71.134 18.776 71.39 19.192C71.678 19.672 71.886 20.136 72.014 20.584C72.91 19.72 73.838 19 74.798 18.424C75.63 17.912 76.558 17.496 77.582 17.176C78.606 16.856 79.63 16.84 80.654 17.128C80.91 17.224 81.022 17.432 80.99 17.752C80.99 18.04 80.862 18.36 80.606 18.712C80.382 19.064 80.062 19.4 79.646 19.72C79.23 20.04 78.734 20.264 78.158 20.392C77.038 20.648 76.142 21.128 75.47 21.832C74.83 22.536 74.334 23.368 73.982 24.328C73.63 25.256 73.406 26.264 73.31 27.352C73.214 28.408 73.166 29.432 73.166 30.424C73.198 32.504 72.91 34.056 72.302 35.08C71.694 36.072 70.878 36.6 69.854 36.664C68.67 36.728 67.79 36.184 67.214 35.032C66.638 33.88 66.35 31.928 66.35 29.176C66.382 27.448 66.398 25.944 66.398 24.664C66.398 23.384 66.35 22.312 66.254 21.448C66.158 20.552 65.998 19.848 65.774 19.336C65.55 18.824 65.23 18.456 64.814 18.232ZM88.562 21.832C88.69 21.544 89.042 21.096 89.618 20.488C90.226 19.88 90.93 19.304 91.73 18.76C92.562 18.216 93.442 17.768 94.37 17.416C95.298 17.032 96.162 16.936 96.962 17.128C98.082 17.384 99.01 17.816 99.746 18.424C100.482 19 100.946 19.928 101.138 21.208C101.234 21.912 101.138 22.632 100.85 23.368C100.594 24.072 100.194 24.744 99.65 25.384C99.106 26.024 98.466 26.6 97.73 27.112C97.026 27.624 96.29 27.992 95.522 28.216C95.426 28.248 95.426 28.488 95.522 28.936C95.65 29.352 95.858 29.848 96.146 30.424C96.466 30.968 96.866 31.512 97.346 32.056C97.858 32.6 98.45 33.016 99.122 33.304C99.858 33.624 100.562 33.736 101.234 33.64C101.906 33.512 102.53 33.272 103.106 32.92C103.682 32.568 104.194 32.152 104.642 31.672C105.122 31.192 105.522 30.728 105.842 30.28C106.194 29.832 106.466 29.464 106.658 29.176C106.882 28.856 107.026 28.696 107.09 28.696C107.378 28.76 107.522 29.064 107.522 29.608C107.522 30.12 107.394 30.744 107.138 31.48C106.914 32.216 106.546 33 106.034 33.832C105.554 34.664 104.978 35.432 104.306 36.136C103.634 36.808 102.866 37.352 102.002 37.768C101.17 38.184 100.258 38.344 99.266 38.248C98.05 38.152 97.042 37.848 96.242 37.336C95.442 36.856 94.786 36.28 94.274 35.608C93.794 34.936 93.41 34.232 93.122 33.496C92.866 32.76 92.674 32.072 92.546 31.432C92.45 30.792 92.37 30.28 92.306 29.896C92.242 29.48 92.178 29.288 92.114 29.32C91.73 29.448 91.33 29.544 90.914 29.608C90.53 29.64 90.178 29.656 89.858 29.656C89.57 29.656 89.33 29.656 89.138 29.656C88.946 29.656 88.85 29.656 88.85 29.656C88.786 30.904 88.722 32.056 88.658 33.112C88.594 34.168 88.546 35.016 88.514 35.656C88.514 36.264 88.29 36.728 87.842 37.048C87.426 37.4 86.946 37.56 86.402 37.528C85.858 37.528 85.298 37.32 84.722 36.904C84.178 36.488 83.762 35.832 83.474 34.936C83.314 34.424 83.186 33.496 83.09 32.152C82.994 30.808 82.93 29.24 82.898 27.448C82.866 25.656 82.85 23.752 82.85 21.736C82.882 19.688 82.93 17.736 82.994 15.88C83.058 13.992 83.138 12.28 83.234 10.744C83.33 9.208 83.458 8.056 83.618 7.288C83.874 5.848 84.274 4.648 84.818 3.688C85.394 2.728 86.034 1.976 86.738 1.432C87.442 0.887999 88.178 0.551999 88.946 0.423999C89.714 0.263999 90.434 0.295999 91.106 0.519998C92.578 0.999997 93.57 1.784 94.082 2.872C94.626 3.928 94.866 5.16 94.802 6.568C94.738 7.944 94.434 9.416 93.89 10.984C93.346 12.52 92.738 14.008 92.066 15.448C91.394 16.856 90.722 18.136 90.05 19.288C89.378 20.408 88.882 21.256 88.562 21.832ZM89.234 26.728C89.874 25.896 90.514 25.256 91.154 24.808C91.698 24.456 92.29 24.264 92.93 24.232C93.602 24.2 94.242 24.616 94.85 25.48C95.714 24.648 96.146 23.864 96.146 23.128C96.178 22.392 95.874 21.848 95.234 21.496C94.69 21.176 94.098 21.128 93.458 21.352C92.818 21.576 92.21 21.96 91.634 22.504C91.058 23.048 90.546 23.704 90.098 24.472C89.682 25.208 89.394 25.96 89.234 26.728ZM87.89 17.32C87.858 17.288 87.97 16.936 88.226 16.264C88.482 15.592 88.786 14.76 89.138 13.768C89.522 12.744 89.89 11.64 90.242 10.456C90.626 9.24 90.914 8.104 91.106 7.048C91.33 5.992 91.426 5.08 91.394 4.312C91.394 3.512 91.186 3.032 90.77 2.872C90.258 2.68 89.842 2.904 89.522 3.544C89.202 4.184 88.93 5.048 88.706 6.136C88.514 7.192 88.354 8.376 88.226 9.688C88.13 11 88.05 12.232 87.986 13.384C87.954 14.504 87.922 15.448 87.89 16.216C87.89 16.984 87.89 17.352 87.89 17.32ZM106.144 18.664C106.592 17.8 107.184 17.048 107.92 16.408C108.656 15.768 109.456 15.256 110.32 14.872C111.216 14.456 112.144 14.152 113.104 13.96C114.096 13.768 115.056 13.672 115.984 13.672C116.944 13.736 117.76 14.056 118.432 14.632C119.136 15.176 119.632 15.896 119.92 16.792C120.208 17.656 120.256 18.632 120.064 19.72C119.904 20.808 119.44 21.912 118.672 23.032C117.84 24.248 116.944 25.16 115.984 25.768C115.056 26.376 114.192 26.808 113.392 27.064C112.464 27.384 111.552 27.528 110.656 27.496C110.624 28.712 110.752 29.752 111.04 30.616C111.168 31 111.312 31.368 111.472 31.72C111.664 32.04 111.904 32.328 112.192 32.584C112.48 32.84 112.832 33.032 113.248 33.16C113.664 33.256 114.144 33.256 114.688 33.16C115.84 32.968 116.768 32.552 117.472 31.912C118.208 31.24 118.816 30.568 119.296 29.896C119.776 29.224 120.16 28.648 120.448 28.168C120.768 27.656 121.072 27.464 121.36 27.592C121.712 27.752 121.888 28.152 121.888 28.792C121.92 29.432 121.776 30.184 121.456 31.048C121.136 31.912 120.656 32.808 120.016 33.736C119.408 34.632 118.624 35.4 117.664 36.04C116.704 36.68 115.6 37.112 114.352 37.336C113.104 37.592 111.712 37.48 110.176 37C108.928 36.616 107.888 36.008 107.056 35.176C106.224 34.344 105.568 33.384 105.088 32.296C104.608 31.208 104.288 30.04 104.128 28.792C103.968 27.544 103.936 26.312 104.032 25.096C104.16 23.848 104.4 22.664 104.752 21.544C105.136 20.424 105.6 19.464 106.144 18.664ZM110.608 23.896C111.024 23.832 111.488 23.704 112 23.512C112.448 23.352 112.928 23.112 113.44 22.792C113.984 22.472 114.56 22.024 115.168 21.448C115.744 20.904 116.128 20.376 116.32 19.864C116.544 19.352 116.672 18.92 116.704 18.568C116.736 18.152 116.672 17.768 116.512 17.416C116.064 17.288 115.584 17.288 115.072 17.416C114.624 17.544 114.128 17.8 113.584 18.184C113.04 18.568 112.48 19.176 111.904 20.008C111.456 20.648 111.136 21.224 110.944 21.736C110.752 22.216 110.624 22.616 110.56 22.936C110.496 23.32 110.512 23.64 110.608 23.896ZM125.319 2.44C125.415 1.864 125.751 1.544 126.327 1.48C126.903 1.416 127.511 1.544 128.151 1.864C128.791 2.184 129.383 2.648 129.927 3.256C130.471 3.832 130.759 4.472 130.791 5.176C130.823 5.912 130.855 6.664 130.887 7.432C130.919 8.2 130.951 8.888 130.983 9.496C131.015 10.232 131.047 10.92 131.079 11.56C132.167 11.464 133.127 11.432 133.959 11.464C134.695 11.496 135.351 11.592 135.927 11.752C136.503 11.912 136.791 12.2 136.791 12.616C136.791 13.064 136.503 13.448 135.927 13.768C135.383 14.088 134.759 14.36 134.055 14.584C133.223 14.84 132.295 15.064 131.271 15.256C131.335 17.4 131.399 19.48 131.463 21.496C131.495 23.256 131.495 25.096 131.463 27.016C131.463 28.936 131.399 30.616 131.271 32.056C131.111 33.496 130.855 34.552 130.503 35.224C130.183 35.896 129.815 36.328 129.399 36.52C128.983 36.712 128.551 36.76 128.103 36.664C127.655 36.536 127.239 36.392 126.855 36.232C126.663 36.168 126.487 35.832 126.327 35.224C126.167 34.616 126.039 33.832 125.943 32.872C125.847 31.912 125.767 30.84 125.703 29.656C125.639 28.44 125.591 27.208 125.559 25.96C125.463 23.016 125.415 19.72 125.415 16.072C124.551 16.264 123.751 16.36 123.015 16.36C122.375 16.36 121.783 16.264 121.239 16.072C120.695 15.848 120.359 15.448 120.231 14.872C120.135 14.424 120.343 14.024 120.855 13.672C121.335 13.32 121.895 13.016 122.535 12.76C123.271 12.472 124.135 12.216 125.127 11.992V11.224C125.127 11 125.127 10.776 125.127 10.552C125.159 10.296 125.175 10.088 125.175 9.928C125.175 8.648 125.159 7.608 125.127 6.808C125.095 6.008 125.079 5.352 125.079 4.84C125.079 4.296 125.095 3.864 125.127 3.544C125.159 3.192 125.223 2.824 125.319 2.44Z" fill="#03AEFB"/>
<path d="M54.309 55.028C54.437 55.604 54.549 56.196 54.645 56.804C54.741 57.38 54.709 57.972 54.549 58.58C54.293 58.964 53.925 59.204 53.445 59.3C52.965 59.396 52.453 59.396 51.909 59.3C51.397 59.204 50.885 59.06 50.373 58.868C49.893 58.644 49.509 58.436 49.221 58.244C48.677 56.676 48.293 55.044 48.069 53.348C47.845 51.652 47.717 49.956 47.685 48.26C47.653 46.564 47.685 44.884 47.781 43.22C47.877 41.556 48.005 39.988 48.165 38.516C48.229 37.428 48.421 36.276 48.741 35.06C49.093 33.844 49.541 32.676 50.085 31.556C50.629 30.404 51.285 29.348 52.053 28.388C52.821 27.428 53.685 26.692 54.645 26.18C55.637 25.636 56.725 25.348 57.909 25.316C59.093 25.284 60.357 25.62 61.701 26.324C63.045 27.028 63.925 27.924 64.341 29.012C64.757 30.1 64.837 31.284 64.581 32.564C64.357 33.812 63.845 35.092 63.045 36.404C62.245 37.684 61.317 38.868 60.261 39.956C59.237 41.044 58.133 41.956 56.949 42.692C55.797 43.428 54.709 43.86 53.685 43.988C53.621 45.812 53.621 47.652 53.685 49.508C53.749 51.364 53.957 53.204 54.309 55.028ZM61.077 28.532C59.829 28.5 58.757 28.82 57.861 29.492C56.997 30.164 56.277 30.98 55.701 31.94C55.125 32.9 54.709 33.924 54.453 35.012C54.197 36.068 54.085 36.948 54.117 37.652C54.181 37.62 54.437 37.476 54.885 37.22C55.365 36.964 55.925 36.644 56.565 36.26C57.205 35.844 57.861 35.364 58.533 34.82C59.237 34.244 59.829 33.636 60.309 32.996C60.821 32.324 61.173 31.62 61.365 30.884C61.557 30.116 61.461 29.332 61.077 28.532ZM80.0591 30.212C79.9311 31.652 79.7071 33.028 79.3871 34.34C79.0671 35.652 78.6831 36.9 78.2351 38.084C77.8191 39.268 77.3551 40.388 76.8431 41.444C76.3311 42.5 75.8191 43.46 75.3071 44.324C74.0911 46.372 72.7471 48.228 71.2751 49.892C71.2751 50.116 71.3231 50.404 71.4191 50.756C71.4831 51.076 71.6111 51.476 71.8031 51.956C71.9951 52.404 72.2991 52.948 72.7151 53.588C73.5471 54.932 74.4591 55.78 75.4511 56.132C76.4751 56.452 77.4511 56.484 78.3791 56.228C79.3391 55.94 80.1711 55.46 80.8751 54.788C81.5791 54.084 82.0591 53.38 82.3151 52.676C82.5711 51.94 82.8271 51.46 83.0831 51.236C83.3391 51.012 83.5631 50.964 83.7551 51.092C83.9791 51.188 84.1391 51.412 84.2351 51.764C84.3631 52.116 84.4111 52.5 84.3791 52.916C83.8351 54.356 83.1471 55.62 82.3151 56.708C81.9631 57.188 81.5471 57.652 81.0671 58.1C80.5871 58.548 80.0591 58.948 79.4831 59.3C78.9071 59.652 78.2671 59.924 77.5631 60.116C76.8911 60.34 76.1551 60.436 75.3551 60.404C73.3071 60.372 71.5951 59.876 70.2191 58.916C68.8751 57.956 67.7871 56.724 66.9551 55.22C66.1231 53.716 65.5311 52.02 65.1791 50.132C64.8271 48.212 64.6191 46.276 64.5551 44.324C64.5231 42.372 64.6031 40.5 64.7951 38.708C65.0191 36.884 65.2751 35.3 65.5631 33.956C65.8831 32.548 66.2991 31.156 66.8111 29.78C67.3551 28.404 68.0111 27.188 68.7791 26.132C69.5791 25.076 70.5071 24.244 71.5631 23.636C72.6511 23.028 73.9151 22.804 75.3551 22.964C76.4111 23.124 77.3231 23.492 78.0911 24.068C78.7311 24.548 79.2751 25.284 79.7231 26.276C80.1711 27.236 80.2831 28.548 80.0591 30.212ZM70.7951 45.668C71.6271 44.292 72.3951 42.868 73.0991 41.396C73.7071 40.148 74.2991 38.788 74.8751 37.316C75.4511 35.812 75.8671 34.34 76.1231 32.9C76.2511 32.196 76.3631 31.476 76.4591 30.74C76.5871 30.004 76.6351 29.332 76.6031 28.724C76.6031 28.084 76.4911 27.556 76.2671 27.14C76.0431 26.692 75.6751 26.436 75.1631 26.372C74.4911 26.308 73.8831 26.548 73.3391 27.092C72.8271 27.604 72.3791 28.34 71.9951 29.3C71.6431 30.228 71.3551 31.348 71.1311 32.66C70.9071 33.94 70.7471 35.316 70.6511 36.788C70.5551 38.228 70.5231 39.716 70.5551 41.252C70.5871 42.788 70.6671 44.26 70.7951 45.668ZM94.791 38.948C94.695 39.364 94.423 39.716 93.975 40.004C93.527 40.26 93.015 40.532 92.439 40.82C91.863 41.108 91.271 41.428 90.663 41.78C90.055 42.132 89.543 42.596 89.127 43.172C88.487 44.1 88.039 45.204 87.783 46.484C87.527 47.764 87.399 48.996 87.399 50.18C87.431 51.332 87.575 52.34 87.831 53.204C88.119 54.036 88.471 54.452 88.887 54.452C89.399 54.452 89.927 54.212 90.471 53.732C91.047 53.252 91.559 52.708 92.007 52.1C92.455 51.46 92.823 50.82 93.111 50.18C93.399 49.508 93.543 48.996 93.543 48.644C93.543 48.292 93.527 47.812 93.495 47.204C93.463 46.564 93.463 45.94 93.495 45.332C93.559 44.724 93.655 44.196 93.783 43.748C93.943 43.3 94.199 43.06 94.551 43.028C94.903 42.996 95.319 42.916 95.799 42.788C96.311 42.66 96.791 42.644 97.239 42.74C97.687 42.836 98.039 43.156 98.295 43.7C98.583 44.212 98.695 45.108 98.631 46.388C98.535 48.98 98.663 50.948 99.015 52.292C99.367 53.604 100.055 54.372 101.079 54.596C101.783 54.724 102.407 54.564 102.951 54.116C103.527 53.636 104.039 53.108 104.487 52.532C104.935 51.956 105.319 51.444 105.639 50.996C105.959 50.516 106.215 50.324 106.407 50.42C106.631 50.516 106.711 50.916 106.647 51.62C106.583 52.324 106.343 53.124 105.927 54.02C105.511 54.884 104.887 55.764 104.055 56.66C103.255 57.524 102.215 58.196 100.935 58.676C100.263 58.932 99.639 59.06 99.063 59.06C98.487 59.06 97.959 58.98 97.479 58.82C97.031 58.66 96.631 58.436 96.279 58.148C95.927 57.86 95.607 57.54 95.319 57.188C94.679 56.388 94.167 55.396 93.783 54.212C93.463 54.98 93.015 55.652 92.439 56.228C91.959 56.74 91.335 57.22 90.567 57.668C89.799 58.084 88.855 58.324 87.735 58.388C86.615 58.42 85.559 58.068 84.567 57.332C83.575 56.596 82.775 55.604 82.167 54.356C81.591 53.108 81.271 51.668 81.207 50.036C81.175 48.372 81.543 46.628 82.311 44.804C82.823 43.62 83.495 42.612 84.327 41.78C85.159 40.948 86.039 40.276 86.967 39.764C87.927 39.22 88.871 38.836 89.799 38.612C90.759 38.356 91.607 38.212 92.343 38.18C93.111 38.148 93.719 38.212 94.167 38.372C94.647 38.5 94.855 38.692 94.791 38.948ZM118.034 41.156C117.938 41.316 117.634 41.364 117.122 41.3C116.61 41.204 116.018 41.188 115.346 41.252C114.674 41.284 114.002 41.492 113.33 41.876C112.658 42.228 112.114 42.916 111.698 43.94C111.314 44.964 111.042 46.052 110.882 47.204C110.754 48.356 110.754 49.46 110.882 50.516C111.042 51.54 111.314 52.436 111.698 53.204C112.114 53.972 112.658 54.5 113.33 54.788C114.29 55.172 115.154 55.3 115.922 55.172C116.69 55.044 117.378 54.836 117.986 54.548C118.594 54.228 119.106 53.892 119.522 53.54C119.97 53.188 120.322 52.964 120.578 52.868C121.186 52.676 121.458 52.916 121.394 53.588C121.33 54.228 120.882 55.06 120.05 56.084C119.602 56.66 119.042 57.22 118.37 57.764C117.698 58.276 116.946 58.692 116.114 59.012C115.282 59.332 114.37 59.508 113.378 59.54C112.418 59.572 111.394 59.38 110.306 58.964C109.282 58.58 108.354 57.956 107.522 57.092C106.69 56.228 106.002 55.236 105.458 54.116C104.946 52.964 104.578 51.732 104.354 50.42C104.162 49.108 104.178 47.796 104.402 46.484C104.658 45.172 105.138 43.908 105.842 42.692C106.578 41.444 107.586 40.34 108.866 39.38C110.082 38.516 111.266 38.068 112.418 38.036C113.602 38.004 114.626 38.164 115.49 38.516C116.386 38.868 117.074 39.332 117.554 39.908C118.034 40.452 118.194 40.868 118.034 41.156ZM122.4 40.916C122.848 40.052 123.44 39.3 124.176 38.66C124.912 38.02 125.712 37.508 126.576 37.124C127.472 36.708 128.4 36.404 129.36 36.212C130.352 36.02 131.312 35.924 132.24 35.924C133.2 35.988 134.016 36.308 134.688 36.884C135.392 37.428 135.888 38.148 136.176 39.044C136.464 39.908 136.512 40.884 136.32 41.972C136.16 43.06 135.696 44.164 134.928 45.284C134.096 46.5 133.2 47.412 132.24 48.02C131.312 48.628 130.448 49.06 129.648 49.316C128.72 49.636 127.808 49.78 126.912 49.748C126.88 50.964 127.008 52.004 127.296 52.868C127.424 53.252 127.568 53.62 127.728 53.972C127.92 54.292 128.16 54.58 128.448 54.836C128.736 55.092 129.088 55.284 129.504 55.412C129.92 55.508 130.4 55.508 130.944 55.412C132.096 55.22 133.024 54.804 133.728 54.164C134.464 53.492 135.072 52.82 135.552 52.148C136.032 51.476 136.416 50.9 136.704 50.42C137.024 49.908 137.328 49.716 137.616 49.844C137.968 50.004 138.144 50.404 138.144 51.044C138.176 51.684 138.032 52.436 137.712 53.3C137.392 54.164 136.912 55.06 136.272 55.988C135.664 56.884 134.88 57.652 133.92 58.292C132.96 58.932 131.856 59.364 130.608 59.588C129.36 59.844 127.968 59.732 126.432 59.252C125.184 58.868 124.144 58.26 123.312 57.428C122.48 56.596 121.824 55.636 121.344 54.548C120.864 53.46 120.544 52.292 120.384 51.044C120.224 49.796 120.192 48.564 120.288 47.348C120.416 46.1 120.656 44.916 121.008 43.796C121.392 42.676 121.856 41.716 122.4 40.916ZM126.864 46.148C127.28 46.084 127.744 45.956 128.256 45.764C128.704 45.604 129.184 45.364 129.696 45.044C130.24 44.724 130.816 44.276 131.424 43.7C132 43.156 132.384 42.628 132.576 42.116C132.8 41.604 132.928 41.172 132.96 40.82C132.992 40.404 132.928 40.02 132.768 39.668C132.32 39.54 131.84 39.54 131.328 39.668C130.88 39.796 130.384 40.052 129.84 40.436C129.296 40.82 128.736 41.428 128.16 42.26C127.712 42.9 127.392 43.476 127.2 43.988C127.008 44.468 126.88 44.868 126.816 45.188C126.752 45.572 126.768 45.892 126.864 46.148Z" fill="#F16243"/>
</svg>
