<svg width="72" height="69" viewBox="0 0 72 69" fill="none" xmlns="http://www.w3.org/2000/svg">
<path fill-rule="evenodd" clip-rule="evenodd" d="M31.6261 1.95793C33.0654 -0.403946 36.4606 -0.403946 37.8999 1.95793L51.5914 24.3957C53.1045 26.8314 51.3331 30.0052 48.4545 30.0052H21.0346C18.156 30.0052 16.3846 26.8314 17.8977 24.3957L31.6261 1.95793ZM54.5074 68.8285C45.3356 68.8285 37.9004 61.3933 37.9004 52.2216C37.9004 43.0498 45.3356 35.6146 54.5074 35.6146C63.6792 35.6146 71.1144 43.0498 71.1144 52.2216C71.1144 61.3933 63.6792 68.8285 54.5074 68.8285ZM4.68653 66.9833C2.65679 66.9833 0.996094 65.3226 0.996094 63.2928V41.1502C0.996094 39.1205 2.65679 37.4598 4.68653 37.4598H26.8291C28.8589 37.4598 30.5196 39.1205 30.5196 41.1502V63.2928C30.5196 65.3226 28.8589 66.9833 26.8291 66.9833H4.68653Z" fill="#08862D"/>
</svg>
