<svg width="26" height="26" viewBox="0 0 26 26" fill="none" xmlns="http://www.w3.org/2000/svg">
<path fill-rule="evenodd" clip-rule="evenodd" d="M11.7831 1.61444C12.2998 0.766541 13.5186 0.766541 14.0353 1.61444L18.9505 9.66949C19.4937 10.5439 18.8577 11.6833 17.8244 11.6833H7.98079C6.94742 11.6833 6.31149 10.5439 6.85468 9.66949L11.7831 1.61444ZM19.9973 25.6206C16.7047 25.6206 14.0355 22.9514 14.0355 19.6588C14.0355 16.3662 16.7047 13.697 19.9973 13.697C23.2899 13.697 25.9591 16.3662 25.9591 19.6588C25.9591 22.9514 23.2899 25.6206 19.9973 25.6206ZM2.11195 24.9582C1.38329 24.9582 0.787109 24.362 0.787109 23.6333V15.6843C0.787109 14.9556 1.38329 14.3594 2.11195 14.3594H10.061C10.7897 14.3594 11.3858 14.9556 11.3858 15.6843V23.6333C11.3858 24.362 10.7897 24.9582 10.061 24.9582H2.11195Z" fill="#1D1D1D"/>
</svg>
