<svg width="19" height="19" viewBox="0 0 29 19" fill="none" xmlns="http://www.w3.org/2000/svg">
<path fill-rule="evenodd" clip-rule="evenodd" d="M28.0818 18.8013H0.128906V15.2565H1.04156C4.07996 15.2565 6.54307 12.7934 6.54307 9.755C6.54307 6.7166 4.07996 4.25349 1.04156 4.25349H0.128906V0.705078H28.0818V4.25349H27.1691C24.1307 4.25349 21.6676 6.7166 21.6676 9.755C21.6676 12.7934 24.1307 15.2565 27.1691 15.2565H28.0818V18.8013ZM2.28643 16.976H25.9243C22.4042 16.3709 19.8333 13.3157 19.8387 9.74393C19.8441 6.17218 22.4242 3.12482 25.9462 2.53039H2.26453C5.78647 3.12482 8.36657 6.17218 8.37198 9.74393C8.3774 13.3157 5.80655 16.3709 2.28643 16.976H2.28643Z" fill="#686868"/>
</svg>
