<svg width="86" height="95" viewBox="0 0 86 95" fill="none" xmlns="http://www.w3.org/2000/svg">
<path fill-rule="evenodd" clip-rule="evenodd" d="M51.7715 16.6928L29.9114 14.0605C26.0626 13.6203 22.3783 15.7474 20.8353 19.3006L12.1849 39.5482C11.1967 41.7553 11.3199 44.3013 12.5166 46.4027L35.3993 86.0368C37.5576 89.775 42.5614 90.9305 46.5603 88.6217L77.0827 70.9996C81.0816 68.6908 82.5828 63.7797 80.4246 60.0414L57.5418 20.4074C56.3205 18.3204 54.1772 16.9407 51.7717 16.6929L51.7715 16.6928ZM77.7755 60.9258C79.1779 63.3548 78.1249 66.5932 75.4352 68.1461L44.9128 85.7682C42.2232 87.3211 38.8921 86.6138 37.4898 84.1848L14.607 44.5508C13.8492 43.1912 13.7827 41.5524 14.4279 40.1359L23.0826 19.9095C24.1598 17.4853 26.677 16.032 29.315 16.3112L51.1708 18.9223C52.7201 19.0719 54.1061 19.9489 54.9046 21.2849L77.7755 60.9258ZM31.8832 27.956C28.284 30.0339 27.0509 34.6361 29.1288 38.2353C31.2068 41.8344 35.809 43.0676 39.4081 40.9896C43.0073 38.9116 44.2404 34.3094 42.1624 30.7103C40.0845 27.1112 35.4823 25.878 31.8832 27.956L31.8832 27.956ZM38.04 38.6198C35.7496 39.9422 32.8209 39.1574 31.4986 36.8671C30.1762 34.5767 30.961 31.6481 33.2513 30.3257C35.5417 29.0034 38.4704 29.7881 39.7927 32.0785C41.115 34.3688 40.3303 37.2975 38.04 38.6198L38.04 38.6198Z" fill="#08862D"/>
<path d="M51.7715 16.6928L51.652 17.6857L51.6623 17.6869L51.6726 17.6879L51.7715 16.6928ZM29.9114 14.0605L30.0309 13.0677L30.025 13.067L29.9114 14.0605ZM20.8353 19.3006L19.918 18.9023L19.9157 18.9077L20.8353 19.3006ZM12.1849 39.5482L13.0976 39.9568L13.1011 39.949L13.1045 39.9411L12.1849 39.5482ZM12.5166 46.4027L11.6476 46.8976L11.6506 46.9027L12.5166 46.4027ZM80.4246 60.0414L79.5585 60.5414L80.4246 60.0414ZM57.5418 20.4074L58.4079 19.9074L58.4049 19.9023L57.5418 20.4074ZM51.7717 16.6929L51.8742 15.6981L51.8706 15.6978L51.7717 16.6929ZM77.7755 60.9258L76.9093 61.4256L76.9095 61.4258L77.7755 60.9258ZM14.607 44.5508L13.7336 45.0376L13.7372 45.0442L13.741 45.0508L14.607 44.5508ZM14.4279 40.1359L15.3379 40.5504L15.3427 40.5399L15.3472 40.5293L14.4279 40.1359ZM23.0826 19.9095L22.1687 19.5034L22.1632 19.5161L23.0826 19.9095ZM29.315 16.3112L29.4337 15.3182L29.4203 15.3167L29.315 16.3112ZM51.1708 18.9223L51.0522 19.9153L51.0634 19.9166L51.0747 19.9177L51.1708 18.9223ZM54.9046 21.2849L55.7708 20.7852L55.7669 20.7785L55.763 20.7719L54.9046 21.2849ZM31.8832 27.956L32.0974 26.9792L31.7188 26.8962L31.3832 27.0899L31.8832 27.956ZM31.8832 27.956L31.669 28.9328L32.0475 29.0158L32.3832 28.822L31.8832 27.956ZM38.04 38.6198L39.0393 38.6548L39.1025 36.8517L37.54 37.7538L38.04 38.6198ZM38.04 38.6198L37.0406 38.5848L36.9774 40.388L38.54 39.4859L38.04 38.6198ZM51.8911 15.7L30.0309 13.0677L29.7918 15.0533L51.652 17.6857L51.8911 15.7ZM30.025 13.067C25.7391 12.5767 21.6364 14.9455 19.918 18.9023L21.7525 19.699C23.1203 16.5493 26.3861 14.6638 29.7977 15.054L30.025 13.067ZM19.9157 18.9077L11.2653 39.1553L13.1045 39.9411L21.7548 19.6935L19.9157 18.9077ZM11.2722 39.1396C10.1537 41.6376 10.2932 44.5192 11.6476 46.8976L13.3856 45.9079C12.3466 44.0835 12.2396 41.873 13.0976 39.9568L11.2722 39.1396ZM11.6506 46.9027L34.5333 86.5368L36.2654 85.5368L13.3826 45.9027L11.6506 46.9027ZM34.5333 86.5368C36.9996 90.8086 42.6402 92.0397 47.0603 89.4877L46.0603 87.7557C42.4825 89.8213 38.1156 88.7415 36.2654 85.5368L34.5333 86.5368ZM47.0603 89.4877L77.5827 71.8656L76.5827 70.1336L46.0603 87.7557L47.0603 89.4877ZM77.5827 71.8656C82.0028 69.3137 83.7569 63.8132 81.2906 59.5414L79.5585 60.5414C81.4088 63.7462 80.1605 68.068 76.5827 70.1336L77.5827 71.8656ZM81.2906 59.5414L58.4078 19.9074L56.6758 20.9074L79.5585 60.5414L81.2906 59.5414ZM58.4049 19.9023C57.0225 17.5402 54.5968 15.9786 51.8742 15.6981L51.6692 17.6876C53.7577 17.9027 55.6184 19.1007 56.6788 20.9125L58.4049 19.9023ZM51.8706 15.6978L51.8704 15.6977L51.6726 17.6879L51.6728 17.688L51.8706 15.6978ZM76.9095 61.4258C77.988 63.294 77.2335 65.9531 74.9352 67.2801L75.9352 69.0121C79.0162 67.2333 80.3677 63.4157 78.6415 60.4258L76.9095 61.4258ZM74.9352 67.2801L44.4128 84.9022L45.4128 86.6342L75.9352 69.0121L74.9352 67.2801ZM44.4128 84.9022C42.1145 86.2291 39.4344 85.5529 38.3558 83.6848L36.6237 84.6848C38.3499 87.6747 42.3318 88.413 45.4128 86.6342L44.4128 84.9022ZM38.3558 83.6848L15.4731 44.0508L13.741 45.0508L36.6237 84.6848L38.3558 83.6848ZM15.4805 44.0639C14.8774 42.9819 14.8245 41.6777 15.3379 40.5504L13.5178 39.7214C12.7409 41.4271 12.821 43.4005 13.7336 45.0376L15.4805 44.0639ZM15.3472 40.5293L24.002 20.3029L22.1632 19.5161L13.5085 39.7425L15.3472 40.5293ZM23.9964 20.3156C24.8975 18.2878 27.0031 17.0721 29.2098 17.3056L29.4203 15.3167C26.3509 14.9919 23.4221 16.6828 22.1687 19.5034L23.9964 20.3156ZM29.1964 17.3041L51.0522 19.9153L51.2894 17.9294L29.4337 15.3182L29.1964 17.3041ZM51.0747 19.9177C52.3077 20.0367 53.4107 20.7347 54.0462 21.798L55.763 20.7719C54.8014 19.1631 53.1325 18.107 51.2669 17.927L51.0747 19.9177ZM54.0384 21.7847L76.9093 61.4256L78.6417 60.4261L55.7708 20.7852L54.0384 21.7847ZM31.3832 27.0899C27.3057 29.444 25.9087 34.6578 28.2628 38.7353L29.9949 37.7353C28.1931 34.6144 29.2623 30.6238 32.3832 28.822L31.3832 27.0899ZM28.2628 38.7353C30.6169 42.8127 35.8307 44.2097 39.9081 41.8556L38.9081 40.1236C35.7873 41.9254 31.7967 40.8561 29.9949 37.7353L28.2628 38.7353ZM39.9081 41.8556C43.9856 39.5015 45.3826 34.2877 43.0285 30.2103L41.2964 31.2103C43.0982 34.3312 42.029 38.3218 38.9081 40.1236L39.9081 41.8556ZM43.0285 30.2103C40.6744 26.1329 35.4606 24.7358 31.3832 27.0899L32.3832 28.822C35.504 27.0202 39.4946 28.0895 41.2964 31.2103L43.0285 30.2103ZM32.0974 26.9792L32.0974 26.9792L31.669 28.9328L31.669 28.9328L32.0974 26.9792ZM37.54 37.7538C35.7279 38.8 33.4108 38.1791 32.3646 36.3671L30.6326 37.3671C32.231 40.1357 35.7713 41.0843 38.54 39.4859L37.54 37.7538ZM32.3646 36.3671C31.3184 34.555 31.9393 32.2379 33.7513 31.1917L32.7513 29.4597C29.9827 31.0582 29.0341 34.5984 30.6326 37.3671L32.3646 36.3671ZM33.7513 31.1917C35.5634 30.1455 37.8805 30.7664 38.9267 32.5785L40.6587 31.5785C39.0603 28.8098 35.52 27.8612 32.7513 29.4597L33.7513 31.1917ZM38.9267 32.5785C39.9729 34.3905 39.352 36.7076 37.54 37.7538L38.54 39.4859C41.3086 37.8874 42.2572 34.3471 40.6587 31.5785L38.9267 32.5785ZM39.0393 38.6548L39.0393 38.6548L37.0406 38.5848L37.0406 38.5848L39.0393 38.6548Z" fill="#08862D"/>
</svg>
