<svg width="17" height="20" viewBox="0 0 17 39" fill="none" xmlns="http://www.w3.org/2000/svg">
<path fill-rule="evenodd" clip-rule="evenodd" d="M9.66153 17.1953C9.13376 17 8.68515 16.8153 8.26293 16.6306V9.82751C8.54274 9.78888 8.82488 9.76948 9.10736 9.76945C10.8611 9.76684 12.5809 10.253 14.0737 11.1733L15.1768 7.96445C13.3515 6.95783 11.2972 6.4397 9.21292 6.46029C8.8857 6.46029 8.56903 6.46029 8.26292 6.49723V0.126953H6.85904V6.69779C3.05904 7.51584 0.831826 10.2972 0.831826 13.5853C0.831826 16.4036 2.76349 18.7522 6.85904 20.3145V28.5267C4.86374 28.4387 2.92532 27.835 1.23293 26.7745L0.129883 30.1364C2.1942 31.2554 4.51114 31.8261 6.85904 31.7936V38.127H8.26293V31.7356C13.224 31.3133 16.0318 28.4528 16.0318 24.5208C16.0318 20.9056 13.8521 18.7997 9.66153 17.1953ZM6.85906 15.9233C5.62934 15.1792 5.0435 14.34 5.0435 13.0839C5.03934 11.8645 5.74964 10.7557 6.85908 10.2497L6.85906 15.9233ZM8.26292 28.4422V20.8528C10.7751 21.9083 11.7674 23.0483 11.7674 24.922C11.7674 26.6583 10.6432 28.0992 8.26292 28.4422Z" fill="black"/>
</svg>
