<svg width="19" height="23" viewBox="0 0 27 23" fill="none" xmlns="http://www.w3.org/2000/svg">
<path fill-rule="evenodd" clip-rule="evenodd" d="M13.3017 3.99411C13.5401 3.46965 14.16 2.13465 15.6857 1.18108C16.1624 0.895013 17.6882 -0.0585554 19.8337 0.0844799C22.2176 0.227515 23.7433 1.61019 24.2201 2.08697C26.5563 4.42321 26.2226 7.56999 26.1749 8.14213C26.0795 9.00034 25.7458 10.8121 21.0256 15.8183C17.116 19.9187 13.2064 22.0165 13.2064 22.0165C13.2064 22.0165 9.24908 19.6326 5.05338 15.6276C1.66822 12.3378 0.285548 10.383 0.142513 8.23748C-0.0482 5.18607 1.76358 0.751978 5.72088 0.0844804C8.39087 -0.392304 11.3946 1.18108 13.3017 3.99411H13.3017Z" fill="#686868"/>
</svg>
