<svg width="29" height="29" viewBox="0 0 29 29" fill="none" xmlns="http://www.w3.org/2000/svg">
<path fill-rule="evenodd" clip-rule="evenodd" d="M27.5277 8.82114L16.7291 0.717463C15.437 -0.239154 13.6715 -0.239154 12.3793 0.717463L1.58079 8.82114C0.670509 9.50608 0.133833 10.578 0.130859 11.7172V24.5047C0.132805 26.4976 1.74346 28.1152 3.7365 28.1257H25.3718C27.3707 28.1236 28.9907 26.5037 28.9928 24.5047V11.7172C28.9862 10.5754 28.4437 9.5029 27.5277 8.82114H27.5277ZM17.2112 23.7872C17.2091 24.9418 16.2781 25.8796 15.1236 25.89H13.9849C12.8244 25.8879 11.8842 24.9477 11.8821 23.7872V19.2628C11.8842 18.1024 12.8244 17.1622 13.9849 17.1601H15.1236C16.284 17.1622 17.2243 18.1024 17.2264 19.2628L17.2112 23.7872ZM27.4593 24.2029C27.4573 25.3575 26.5263 26.2953 25.3718 26.3057H18.0538C18.4943 25.6932 18.7307 24.9574 18.7294 24.2029V19.6785C18.7275 17.6857 17.1168 16.0681 15.1238 16.0575H13.9849C11.9859 16.0596 10.366 17.6796 10.3639 19.6785V24.2029C10.3626 24.9575 10.599 25.6932 11.0395 26.3058H3.7367C2.58215 26.2954 1.65112 25.3575 1.64911 24.2029V11.4155C1.65148 10.754 1.96329 10.1318 2.49173 9.734L13.2903 1.63031C14.0418 1.07604 15.0667 1.07604 15.8182 1.63031L26.6167 9.73399C27.1452 10.1318 27.457 10.754 27.4593 11.4155V24.2029Z" fill="#08862D"/>
</svg>
