<svg width="16" height="33" viewBox="0 0 26 33" fill="none" xmlns="http://www.w3.org/2000/svg">
<path fill-rule="evenodd" clip-rule="evenodd" d="M12.8629 32.501C14.6962 32.501 16.1962 31.001 16.1962 29.1676H9.52956C9.52956 31.001 11.0129 32.501 12.8629 32.501ZM23.357 22.501V14.1676C23.357 9.05098 20.6237 4.76764 15.857 3.63431V2.50098C15.857 1.11764 14.7404 0.000976562 13.357 0.000976562C11.9737 0.000976562 10.857 1.11764 10.857 2.50098V3.63431C6.07369 4.76764 3.35702 9.03431 3.35702 14.1676V22.501L1.20702 24.651C0.157019 25.701 0.890353 27.501 2.37369 27.501H24.3237C25.807 27.501 26.557 25.701 25.507 24.651L23.357 22.501Z" fill="#1D1D1D"/>
</svg>
