<svg width="19" height="27" viewBox="0 0 27 27" fill="none" xmlns="http://www.w3.org/2000/svg">
<path fill-rule="evenodd" clip-rule="evenodd" d="M26.252 4.29194C26.3666 3.67376 26.057 3.05462 25.4937 2.77536L20.2653 0.147885C20.0685 0.0504795 19.8518 -0.000125451 19.6321 1.8187e-05H7.49949C7.27975 -0.00110217 7.06283 0.0495547 6.86632 0.147885L1.64549 2.76399C1.08124 3.04228 0.771287 3.66219 0.887196 4.28057C0.398478 4.87454 0.130532 5.61942 0.128906 6.38861V23.5298C0.133079 25.3728 1.62613 26.8659 3.46918 26.87H23.6587C25.5017 26.8659 26.9948 25.3728 26.9989 23.5298V6.39999C27.0005 5.63213 26.7366 4.8874 26.252 4.29189L26.252 4.29194ZM14.2445 1.86919H19.526L22.9383 3.57155H14.2445V1.86919ZM7.60186 1.86919H12.8834V3.57155H4.20092L7.60186 1.86919ZM19.0065 24.1933C19.0065 24.6393 18.645 25.0008 18.199 25.0008H8.92887C8.48285 25.0008 8.12129 24.6393 8.12129 24.1933V21.0426C8.12129 20.8287 8.20649 20.6237 8.35806 20.4728C8.50962 20.322 8.71504 20.2378 8.92888 20.2388H18.199C18.4128 20.2378 18.6182 20.322 18.7698 20.4729C18.9213 20.6237 19.0066 20.8287 19.0065 21.0426L19.0065 24.1933ZM24.6179 23.5297C24.6158 24.0586 24.1876 24.4869 23.6587 24.489H20.8606C20.8606 24.3904 20.8606 24.2918 20.8606 24.1932V21.0425C20.8585 19.5651 19.6612 18.3679 18.1838 18.3658H8.92887C7.45139 18.3679 6.25419 19.5651 6.2521 21.0425V24.1932C6.2521 24.2918 6.2521 24.3904 6.2521 24.489H3.46918C2.94027 24.4869 2.51202 24.0586 2.50994 23.5297V6.39997C2.51201 5.87107 2.94026 5.44281 3.46917 5.44073H23.6587C24.1876 5.44281 24.6158 5.87106 24.6179 6.39997V23.5297Z" fill="#686868"/>
</svg>
