<svg width="31" height="31" viewBox="0 0 31 31" fill="none" xmlns="http://www.w3.org/2000/svg">
<path fill-rule="evenodd" clip-rule="evenodd" d="M29.0805 2.63605C28.4363 2.33746 27.6762 2.44989 27.1459 2.92224C26.4528 3.53666 25.7294 4.11612 24.9785 4.65846C22.9944 2.53684 19.5487 1.125 15.6299 1.125C11.7111 1.125 8.26546 2.53684 6.30033 4.65842C5.54294 4.1166 4.81321 3.53714 4.11387 2.92222C3.58363 2.44988 2.82355 2.33744 2.17927 2.63604C1.53623 2.92173 1.12404 3.56177 1.12995 4.26539V28.3316C1.13202 29.3211 1.93372 30.1229 2.92332 30.125H28.3365C29.3261 30.1229 30.1278 29.3212 30.1299 28.3316V4.26539C30.1358 3.56175 29.7236 2.92172 29.0805 2.63604L29.0805 2.63605ZM15.6299 2.65132C19.0221 2.65132 22.006 3.79605 23.6964 5.50171C18.2933 8.84434 12.9664 8.84434 7.56329 5.50171C9.25368 3.78842 12.2376 2.65132 15.6299 2.65132ZM28.6038 28.3316C28.6038 28.4791 28.4842 28.5987 28.3367 28.5987H2.92356C2.77604 28.5987 2.65646 28.4791 2.65646 28.3316V4.2654C2.65168 4.16113 2.7127 4.06504 2.80909 4.025C2.84544 4.0042 2.88573 3.99121 2.92738 3.98684C2.99397 3.98847 3.0577 4.01423 3.10672 4.05934C3.83863 4.69959 4.60278 5.302 5.3962 5.86422C9.64062 8.57979 6.23186 6.44804 6.65159 6.70751C6.65159 6.70751 12.6373 9.51466 15.6416 9.51211C18.6459 9.50957 21.6273 6.70497 24.6316 6.70751C25.0513 6.44804 25.471 6.16567 25.8908 5.86804C26.6539 5.32238 27.4171 4.7233 28.1802 4.05935C28.2606 3.98429 28.3787 3.96612 28.4779 4.01356C28.5743 4.0536 28.6353 4.14969 28.6305 4.25396L28.6038 28.3316Z" fill="black"/>
<path d="M29.0805 2.63605L28.8715 3.09026L29.2908 2.1824L29.0805 2.63605ZM27.1459 2.92224L27.4776 3.2964L27.4785 3.29559L27.1459 2.92224ZM24.9785 4.65846L24.6133 4.99999L24.9142 5.3217L25.2713 5.06379L24.9785 4.65846ZM6.30033 4.65842L6.00941 5.06508L6.36775 5.32142L6.66715 4.99819L6.30033 4.65842ZM4.11387 2.92222L3.78128 3.29558L3.7837 3.29771L4.11387 2.92222ZM2.17927 2.63604L2.3823 3.09302L2.38951 3.08968L2.17927 2.63604ZM1.12995 4.26539H1.62996L1.62993 4.2612L1.12995 4.26539ZM1.12995 28.3316H0.629944L0.629947 28.3326L1.12995 28.3316ZM2.92332 30.125L2.92225 30.625H2.92332V30.125ZM28.3365 30.125V30.625L28.3375 30.625L28.3365 30.125ZM30.1299 28.3316L30.6299 28.3326V28.3316H30.1299ZM30.1299 4.26539L29.6299 4.26121V4.26539H30.1299ZM29.0805 2.63604L29.2835 2.17911L28.8715 3.09025L29.0805 2.63604ZM23.6964 5.50171L23.9595 5.92692L24.494 5.59622L24.0516 5.14975L23.6964 5.50171ZM7.56329 5.50171L7.20737 5.15055L6.7669 5.59698L7.30024 5.92692L7.56329 5.50171ZM28.6038 28.3316L28.1038 28.331V28.3316H28.6038ZM2.65646 28.3316H2.15646V28.3316L2.65646 28.3316ZM2.65646 4.2654H3.15646V4.25396L3.15593 4.24253L2.65646 4.2654ZM2.80909 4.025L3.00087 4.48676L3.03001 4.47465L3.05739 4.45899L2.80909 4.025ZM2.92738 3.98684L2.93958 3.48699L2.90734 3.4862L2.87527 3.48956L2.92738 3.98684ZM3.10672 4.05934L2.76802 4.42737L2.77752 4.43568L3.10672 4.05934ZM5.3962 5.86422L5.10712 6.27218L5.11677 6.27902L5.12673 6.28539L5.3962 5.86422ZM6.65159 6.70751L6.38868 7.13281L6.4132 7.14796L6.43929 7.1602L6.65159 6.70751ZM24.6316 6.70751L24.6311 7.20751L24.7734 7.20763L24.8945 7.13281L24.6316 6.70751ZM25.8908 5.86804L26.18 6.27591L26.1816 6.27476L25.8908 5.86804ZM28.1802 4.05935L28.5084 4.43657L28.5151 4.43075L28.5216 4.42468L28.1802 4.05935ZM28.4779 4.01356L28.2621 4.46461L28.2739 4.47028L28.2861 4.47532L28.4779 4.01356ZM28.6305 4.25396L28.131 4.23109L28.1305 4.24224L28.1305 4.2534L28.6305 4.25396ZM29.2908 2.1824C28.4657 1.80002 27.4924 1.94401 26.8134 2.54889L27.4785 3.29559C27.86 2.95578 28.4068 2.87489 28.8703 3.0897L29.2908 2.1824ZM26.8143 2.54807C26.1336 3.15146 25.4232 3.72052 24.6858 4.25313L25.2713 5.06379C26.0357 4.51171 26.772 3.92185 27.4776 3.2964L26.8143 2.54807ZM25.3437 4.31694C23.2458 2.07369 19.6563 0.625 15.6299 0.625V1.625C19.4412 1.625 22.7429 3 24.6133 4.99999L25.3437 4.31694ZM15.6299 0.625C11.6043 0.625 8.01325 2.07334 5.93351 4.31865L6.66715 4.99819C8.51767 3.00034 11.8179 1.625 15.6299 1.625V0.625ZM6.59124 4.25177C5.84745 3.71967 5.13082 3.15061 4.44403 2.54673L3.7837 3.29771C4.4956 3.92367 5.23843 4.51353 6.00941 5.06508L6.59124 4.25177ZM4.44645 2.54887C3.76743 1.94399 2.79408 1.80001 1.96902 2.18239L2.38951 3.08968C2.85302 2.87487 3.39982 2.95576 3.78128 3.29557L4.44645 2.54887ZM1.97625 2.1791C1.15123 2.54566 0.622386 3.36684 0.629963 4.26959L1.62993 4.2612C1.62569 3.75671 1.92123 3.29781 2.38228 3.09297L1.97625 2.1791ZM0.629945 4.26539V28.3316H1.62995V4.26539H0.629945ZM0.629947 28.3326C0.632603 29.5975 1.65734 30.6223 2.92225 30.625L2.9244 29.625C2.2101 29.6235 1.63144 29.0448 1.62994 28.3305L0.629947 28.3326ZM2.92332 30.625H28.3365V29.625H2.92332V30.625ZM28.3375 30.625C29.6025 30.6223 30.6272 29.5976 30.6299 28.3326L29.6299 28.3305C29.6284 29.0448 29.0497 29.6235 28.3354 29.625L28.3375 30.625ZM30.6299 28.3316V4.26539H29.6299V28.3316H30.6299ZM30.6299 4.26958C30.6374 3.36681 30.1086 2.54564 29.2835 2.17911L28.8775 3.09298C29.3386 3.29781 29.6341 3.7567 29.6299 4.26121L30.6299 4.26958ZM28.8715 3.09025L28.8715 3.09026L29.2896 2.18185L29.2896 2.18184L28.8715 3.09025ZM15.6299 3.15132C18.9254 3.15132 21.7678 4.26597 23.3413 5.85367L24.0516 5.14975C22.2443 3.32614 19.1188 2.15132 15.6299 2.15132V3.15132ZM23.4334 5.0765C20.7958 6.70824 18.2032 7.50869 15.6299 7.50869C13.0565 7.50869 10.4639 6.70824 7.82635 5.0765L7.30024 5.92692C10.0658 7.63782 12.8382 8.50869 15.6299 8.50869C18.4215 8.50869 21.1939 7.63782 23.9595 5.92692L23.4334 5.0765ZM7.91922 5.85288C9.49191 4.25888 12.3333 3.15132 15.6299 3.15132V2.15132C12.1419 2.15132 9.01546 3.31797 7.20737 5.15055L7.91922 5.85288ZM28.1038 28.3316C28.1038 28.203 28.208 28.0987 28.3367 28.0987V29.0987C28.7603 29.0987 29.1038 28.7552 29.1038 28.3316H28.1038ZM28.3367 28.0987H2.92356V29.0987H28.3367V28.0987ZM2.92356 28.0987C3.05219 28.0987 3.15646 28.203 3.15646 28.3316L2.15646 28.3316C2.15646 28.7552 2.4999 29.0987 2.92356 29.0987V28.0987ZM3.15646 28.3316V4.2654H2.15646V28.3316H3.15646ZM3.15593 4.24253C3.16078 4.34846 3.0988 4.44608 3.00087 4.48676L2.6173 3.56325C2.3266 3.68399 2.14259 3.9738 2.15698 4.28826L3.15593 4.24253ZM3.05739 4.45899C3.03345 4.47269 3.00691 4.48125 2.97948 4.48412L2.87527 3.48956C2.76454 3.50117 2.65743 3.53572 2.56078 3.59101L3.05739 4.45899ZM2.91517 4.48669C2.86057 4.48536 2.80832 4.46424 2.76813 4.42725L3.44531 3.69144C3.30709 3.56423 3.12737 3.49158 2.93958 3.48699L2.91517 4.48669ZM2.77752 4.43568C3.52225 5.08714 4.2998 5.7001 5.10712 6.27218L5.68528 5.45626C4.90577 4.90389 4.155 4.31203 3.43592 3.68301L2.77752 4.43568ZM5.12673 6.28539C6.18804 6.96442 6.76861 7.33894 7.04983 7.52329C7.20811 7.62705 7.24247 7.65212 7.23035 7.64215C7.22652 7.639 7.216 7.63028 7.20312 7.61786C7.19669 7.61166 7.1853 7.60036 7.17216 7.58512C7.16244 7.57385 7.13408 7.54044 7.10818 7.49096C7.09919 7.47379 6.99694 7.29044 7.0894 7.06768C7.20356 6.79261 7.46719 6.76377 7.51932 6.76046C7.5939 6.75573 7.65123 6.76939 7.66673 6.7731C7.69044 6.77877 7.70873 6.78502 7.71822 6.78841C7.76155 6.80393 7.79452 6.82388 7.77535 6.81331C7.768 6.80926 7.74864 6.79804 7.71488 6.77784C7.58472 6.69996 7.33435 6.54502 7.13951 6.42371C7.04271 6.36343 6.9613 6.31251 6.91749 6.28495C6.90651 6.27804 6.89837 6.2729 6.89312 6.26957C6.89185 6.26876 6.89085 6.26812 6.8901 6.26764C6.88932 6.26714 6.889 6.26694 6.88904 6.26696C6.88906 6.26698 6.88931 6.26714 6.88972 6.2674C6.89008 6.26764 6.89091 6.26818 6.89203 6.26893C6.89291 6.26951 6.89533 6.27111 6.89848 6.27328C6.90006 6.27437 6.90406 6.27717 6.90639 6.27884C6.91006 6.28149 6.92034 6.28921 6.92684 6.29431C6.94161 6.30657 7.01522 6.38548 7.06189 6.46101C7.03228 6.96037 6.50762 7.17342 6.43299 7.15079C6.41627 7.14391 6.39265 7.13294 6.38557 7.12936C6.38166 7.12732 6.37527 7.12388 6.37283 7.12254C6.36833 7.12004 6.36494 7.11807 6.36392 7.11748C6.36247 7.11663 6.3614 7.11599 6.36093 7.11572C6.35962 7.11493 6.35967 7.11495 6.36245 7.11665C6.36726 7.11959 6.37572 7.12479 6.38868 7.13281L6.9145 6.28221C6.90123 6.27401 6.89093 6.26766 6.88377 6.26329C6.88056 6.26133 6.87632 6.25874 6.87231 6.25636C6.87169 6.25599 6.86529 6.25216 6.85757 6.24788C6.855 6.24646 6.84849 6.24297 6.84449 6.24088C6.83733 6.23725 6.81364 6.22625 6.79688 6.21935C6.7222 6.19671 6.19753 6.40975 6.16792 6.90913C6.21461 6.98467 6.28824 7.06361 6.30307 7.07592C6.30963 7.08106 6.31998 7.08883 6.32375 7.09156C6.32619 7.0933 6.33031 7.09619 6.33204 7.09739C6.33549 7.09975 6.3383 7.10162 6.33966 7.10252C6.34259 7.10446 6.34518 7.10614 6.34665 7.10709C6.3499 7.10919 6.35352 7.1115 6.35694 7.11367C6.36401 7.11816 6.37357 7.1242 6.38496 7.13136C6.43065 7.16011 6.51353 7.21195 6.61096 7.27261C6.80457 7.39316 7.06242 7.55278 7.20143 7.63596C7.23496 7.65603 7.26795 7.67548 7.29241 7.68897C7.29889 7.69254 7.30771 7.69733 7.31745 7.70227C7.32077 7.70396 7.34741 7.71781 7.38114 7.72989C7.39125 7.73351 7.41006 7.73992 7.4342 7.74569C7.45014 7.7495 7.50781 7.7632 7.58263 7.75846C7.635 7.75514 7.89878 7.72622 8.01301 7.45102C8.10552 7.22812 8.00323 7.04457 7.99411 7.02714C7.96807 6.9774 7.93948 6.94367 7.92943 6.93202C7.91596 6.9164 7.90414 6.90466 7.89718 6.89794C7.88324 6.88451 7.87128 6.87451 7.86559 6.86984C7.82368 6.83536 7.72364 6.76929 7.59807 6.68697C7.31157 6.49916 6.72657 6.12181 5.66567 5.44305L5.12673 6.28539ZM6.65159 6.70751C6.43929 7.1602 6.43936 7.16023 6.43945 7.16027C6.43951 7.1603 6.43962 7.16035 6.43974 7.16041C6.43998 7.16052 6.44031 7.16067 6.44073 7.16087C6.44157 7.16127 6.44277 7.16183 6.44433 7.16256C6.44746 7.16402 6.45201 7.16614 6.45796 7.16891C6.46985 7.17444 6.48734 7.18255 6.51013 7.19306C6.55571 7.21409 6.62255 7.24473 6.70845 7.28362C6.88022 7.36139 7.12834 7.47217 7.43524 7.60497C8.04868 7.87041 8.89874 8.22456 9.84453 8.57897C11.7088 9.27756 14.0367 10.0135 15.642 10.0121L15.6412 9.01211C14.2421 9.0133 12.0751 8.34691 10.1954 7.64256C9.26925 7.2955 8.43512 6.94802 7.83236 6.6872C7.53116 6.55687 7.28817 6.44837 7.12087 6.37263C7.03723 6.33476 6.97253 6.3051 6.92897 6.285C6.90719 6.27496 6.89069 6.2673 6.87975 6.26222C6.87428 6.25967 6.87021 6.25777 6.86755 6.25653C6.86622 6.25591 6.86525 6.25546 6.86464 6.25517C6.86434 6.25503 6.86412 6.25493 6.864 6.25487C6.86393 6.25484 6.86391 6.25483 6.86388 6.25481C6.86387 6.25481 6.86389 6.25482 6.65159 6.70751ZM15.642 10.0121C17.2765 10.0107 18.8786 9.24947 20.3487 8.56067C21.8713 7.84727 23.2618 7.20635 24.6311 7.20751L24.632 6.20751C22.9971 6.20612 21.3947 6.96623 19.9244 7.65514C18.4016 8.36864 17.0109 9.01095 15.6412 9.01211L15.642 10.0121ZM24.8945 7.13281C25.3252 6.86654 25.7539 6.57806 26.18 6.2759L25.6016 5.46017C25.1882 5.75327 24.7774 6.02953 24.3686 6.28221L24.8945 7.13281ZM26.1816 6.27476C26.9574 5.72007 27.733 5.11117 28.5084 4.43657L27.8521 3.68213C27.1011 4.33543 26.3505 4.92468 25.6 5.46131L26.1816 6.27476ZM28.5216 4.42468C28.4516 4.49013 28.3486 4.50598 28.2621 4.46461L28.6936 3.56252C28.4088 3.42625 28.0696 3.47845 27.8389 3.69402L28.5216 4.42468ZM28.2861 4.47532C28.1882 4.43465 28.1262 4.33703 28.131 4.23109L29.13 4.27682C29.1444 3.96236 28.9604 3.67254 28.6697 3.55181L28.2861 4.47532ZM28.1305 4.2534L28.1038 28.331L29.1038 28.3321L29.1305 4.25451L28.1305 4.2534Z" fill="#1D1D1D"/>
</svg>
