<svg width="76" height="74" viewBox="0 0 76 74" fill="none" xmlns="http://www.w3.org/2000/svg">
<path fill-rule="evenodd" clip-rule="evenodd" d="M71.3158 15.6868L41.6393 0.794671C39.502 -0.26489 36.9923 -0.26489 34.855 0.794671L5.1785 15.6868C2.62278 16.9558 1.00249 19.5589 0.992219 22.4123V50.7652C0.983925 53.6364 2.60706 56.263 5.1786 57.5398L34.855 72.3829C36.9923 73.4424 39.502 73.4424 41.6393 72.3829L71.3158 57.5397C73.8873 56.2629 75.5104 53.6363 75.5021 50.7652V22.4123C75.4918 19.5589 73.8715 16.9558 71.3157 15.6868L71.3158 15.6868ZM36.2939 39.2647V67.9215L6.94091 53.2157C5.7094 52.6016 4.92837 51.3467 4.9213 49.9706V21.6176C4.91124 21.5231 4.91124 21.4278 4.9213 21.3333L36.588 37.1569C36.3909 37.8421 36.2919 38.5517 36.2939 39.2647H36.2939ZM7.33533 18.5295L36.6099 3.89222C37.6418 3.38233 38.8524 3.38233 39.8844 3.89221L69.1589 18.5295L40.4726 32.9216C39.7936 33.2569 39.1716 33.6969 38.6295 34.2255L7.33533 18.5295ZM71.5805 49.9706C71.5846 51.3573 70.8019 52.6263 69.5609 53.2451L40.2079 67.9215V39.2647C40.2038 37.8781 40.9865 36.609 42.2275 35.9902L71.5805 21.3333C71.5906 21.4278 71.5906 21.5231 71.5805 21.6176V49.9706Z" fill="#08862D"/>
</svg>
