<svg width="30" height="29" viewBox="0 0 30 29" fill="none" xmlns="http://www.w3.org/2000/svg">
<path fill-rule="evenodd" clip-rule="evenodd" d="M27.7418 6.28484L16.0904 0.437976C15.2513 0.0219769 14.2659 0.0219769 13.4268 0.437976L1.77543 6.28484C0.772029 6.78306 0.135879 7.80508 0.131848 8.92536V20.0571C0.128592 21.1844 0.765854 22.2156 1.77548 22.7169L13.4268 28.5445C14.2659 28.9605 15.2513 28.9605 16.0904 28.5445L27.7418 22.7169C28.7514 22.2156 29.3886 21.1843 29.3854 20.0571V8.92536C29.3813 7.80506 28.7452 6.78305 27.7418 6.28483L27.7418 6.28484ZM13.9917 15.5418V26.7929L2.46738 21.0192C1.98387 20.7781 1.67723 20.2854 1.67446 19.7451V8.61336C1.67051 8.57626 1.67051 8.53884 1.67446 8.50174L14.1072 14.7143C14.0298 14.9833 13.9909 15.2619 13.9917 15.5418H13.9917ZM2.62224 7.4009L14.1158 1.65411C14.521 1.45393 14.9962 1.45393 15.4014 1.65411L26.895 7.4009L15.6324 13.0515C15.3658 13.1831 15.1216 13.3558 14.9087 13.5634L2.62224 7.4009ZM27.8457 19.7451C27.8473 20.2896 27.54 20.7878 27.0528 21.0307L15.5284 26.7929V15.5418C15.5268 14.9974 15.8341 14.4992 16.3213 14.2562L27.8457 8.50174C27.8497 8.53884 27.8497 8.57626 27.8457 8.61336V19.7451Z" fill="#1D1D1D"/>
</svg>
