<svg width="19" height="25" viewBox="0 0 29 25" fill="none" xmlns="http://www.w3.org/2000/svg">
<path fill-rule="evenodd" clip-rule="evenodd" d="M16.0541 0.0810572C11.215 0.0780098 6.8107 2.87416 4.75463 7.25481C4.31094 8.1979 3.98863 9.19345 3.79541 10.2176H0.128906L3.63986 13.7841L4.68796 14.8545L5.86199 13.6582L9.25072 10.2102H6.05457C7.17859 5.34703 11.6462 2.00353 16.629 2.29648C21.6118 2.58943 25.6569 6.43341 26.2033 11.3948C26.7497 16.3562 23.6381 20.9884 18.8385 22.3587C14.0389 23.729 8.95071 21.4379 6.79528 16.9359L5.15831 18.5987C8.1101 23.9022 14.4541 26.3067 20.1796 24.2922C25.9051 22.2776 29.3457 16.4303 28.3261 10.447C27.3066 4.46367 22.1237 0.0857674 16.0541 0.0810572H16.0541ZM14.9431 5.66229C14.4317 5.66229 14.0172 6.07682 14.0172 6.58817V14.2989L19.9428 17.784C20.0859 17.8663 20.2481 17.9097 20.4132 17.9099C20.8296 17.9051 21.1916 17.623 21.2979 17.2204C21.4042 16.8177 21.2285 16.3937 20.8687 16.184L15.8504 13.2397V6.57336C15.8426 6.07492 15.4415 5.67219 14.9431 5.66229H14.9431Z" fill="#686868"/>
</svg>
