<svg width="20" height="20" viewBox="0 0 20 20" fill="none" xmlns="http://www.w3.org/2000/svg">
<path fill-rule="evenodd" clip-rule="evenodd" d="M17.3702 10.98C17.4102 10.66 17.4402 10.34 17.4402 10C17.4402 9.66 17.4102 9.34 17.3702 9.02L19.4802 7.37C19.6702 7.22 19.7202 6.95 19.6002 6.73L17.6002 3.27C17.4802 3.05 17.2102 2.97 16.9902 3.05L14.5002 4.05C13.9802 3.65 13.4202 3.32 12.8102 3.07L12.4302 0.42C12.4002 0.18 12.1902 0 11.9402 0H7.94025C7.69025 0 7.48025 0.18 7.45025 0.42L7.07025 3.07C6.46026 3.32 5.90026 3.66 5.38026 4.05L2.89026 3.05C2.66026 2.96 2.40026 3.05 2.28026 3.27L0.280269 6.73C0.150269 6.95 0.210269 7.22 0.400269 7.37L2.51026 9.02C2.47026 9.34 2.44026 9.67 2.44026 10C2.44026 10.33 2.47026 10.66 2.51026 10.98L0.400269 12.63C0.210269 12.78 0.160269 13.05 0.280269 13.27L2.28026 16.73C2.40026 16.95 2.67026 17.03 2.89026 16.95L5.38026 15.95C5.90026 16.35 6.46026 16.68 7.07025 16.93L7.45025 19.58C7.48025 19.82 7.69025 20 7.94025 20H11.9402C12.1902 20 12.4002 19.82 12.4302 19.58L12.8102 16.93C13.4202 16.68 13.9802 16.34 14.5002 15.95L16.9902 16.95C17.2202 17.04 17.4802 16.95 17.6002 16.73L19.6002 13.27C19.7202 13.05 19.6702 12.78 19.4802 12.63L17.3702 10.98ZM9.87091 13.5C7.94092 13.5 6.37092 11.93 6.37092 10C6.37092 8.07 7.94092 6.5 9.87091 6.5C11.8009 6.5 13.3709 8.07 13.3709 10C13.3709 11.93 11.8009 13.5 9.87091 13.5Z" fill="#1D1D1D"/>
</svg>
