<svg width="62" height="63" viewBox="0 0 62 63" fill="none" xmlns="http://www.w3.org/2000/svg">
<path fill-rule="evenodd" clip-rule="evenodd" d="M54.35 34.1394C54.4743 33.1444 54.5676 32.1494 54.5676 31.0923C54.5676 30.0351 54.4743 29.0401 54.35 28.0451L60.9106 22.9147C61.5014 22.4483 61.6569 21.6088 61.2838 20.9248L55.0651 10.1665C54.692 9.48246 53.8525 9.23371 53.1684 9.48246L45.4262 12.5918C43.8094 11.3481 42.0682 10.322 40.1715 9.54465L38.9899 1.30494C38.8966 0.558702 38.2437 -0.000976562 37.4664 -0.000976562H25.0291C24.2517 -0.000976562 23.5988 0.558702 23.5055 1.30494L22.324 9.54465C20.4273 10.322 18.6861 11.3791 17.0692 12.5918L9.327 9.48246C8.61185 9.20262 7.80343 9.48246 7.43031 10.1665L1.21167 20.9248C0.807456 21.6088 0.994015 22.4483 1.58479 22.9147L8.14545 28.0451C8.02108 29.0401 7.9278 30.0662 7.9278 31.0923C7.9278 32.1183 8.02108 33.1444 8.14545 34.1394L1.58479 39.2698C0.994015 39.7362 0.838549 40.5757 1.21167 41.2597L7.43031 52.018C7.80343 52.702 8.64295 52.9508 9.327 52.7021L17.0692 49.5927C18.6861 50.8365 20.4273 51.8625 22.324 52.6399L23.5055 60.8796C23.5988 61.6258 24.2517 62.1855 25.0291 62.1855H37.4664C38.2437 62.1855 38.8966 61.6258 38.9899 60.8796L40.1715 52.6399C42.0682 51.8625 43.8094 50.8054 45.4262 49.5927L53.1684 52.7021C53.8836 52.9819 54.692 52.702 55.0651 52.018L61.2838 41.2597C61.6569 40.5757 61.5014 39.7362 60.9106 39.2698L54.35 34.1394ZM31.0322 41.9749C25.0312 41.9749 20.1495 37.0933 20.1495 31.0923C20.1495 25.0913 25.0312 20.2096 31.0322 20.2096C37.0331 20.2096 41.9148 25.0913 41.9148 31.0923C41.9148 37.0933 37.0331 41.9749 31.0322 41.9749Z" fill="#08862D"/>
</svg>
