<svg width="73" height="73" viewBox="0 0 73 73" fill="none" xmlns="http://www.w3.org/2000/svg">
<path fill-rule="evenodd" clip-rule="evenodd" d="M69.4272 4.69947C67.8498 3.96843 65.989 4.2437 64.6908 5.40013C62.9937 6.90441 61.2227 8.32308 59.3843 9.65089C54.5266 4.45658 46.0906 1 36.4963 1C26.9019 1 18.466 4.45658 13.6548 9.65079C11.8005 8.32426 10.0139 6.90558 8.30173 5.40009C7.00355 4.24366 5.14267 3.96839 3.56528 4.69943C1.99095 5.3989 0.981788 6.9659 0.996247 8.68855V67.6092C1.00134 70.032 2.96411 71.9948 5.38695 72H67.6055C70.0284 71.9949 71.9912 70.032 71.9963 67.6092V8.68855C72.0107 6.96584 71.0015 5.39887 69.4272 4.69945L69.4272 4.69947ZM36.4961 4.73685C44.8013 4.73685 52.1068 7.53948 56.2453 11.7154C43.0169 19.8991 29.9753 19.8991 16.7469 11.7154C20.8855 7.52079 28.191 4.73685 36.4961 4.73685ZM68.26 67.6092C68.26 67.9704 67.9672 68.2632 67.606 68.2632H5.38753C5.02636 68.2632 4.73358 67.9704 4.73358 67.6092V8.68856C4.72189 8.43329 4.87127 8.19802 5.10726 8.1C5.19626 8.04908 5.29489 8.01727 5.39687 8.00658C5.55991 8.01056 5.71595 8.07364 5.83595 8.18408C7.62786 9.75157 9.49874 11.2264 11.4412 12.6029C21.8328 19.2514 13.4872 14.0323 14.5148 14.6675C14.5148 14.6675 29.1695 21.5402 36.5248 21.534C43.8802 21.5277 51.1795 14.6613 58.5348 14.6675C59.5625 14.0323 60.5901 13.3409 61.6177 12.6123C63.4862 11.2763 65.3546 9.80963 67.223 8.1841C67.4197 8.00033 67.7089 7.95583 67.9517 8.07199C68.1877 8.17001 68.3371 8.40528 68.3254 8.66055L68.26 67.6092Z" fill="#08862D"/>
<path d="M69.4272 4.69947L69.2251 5.1568L69.6375 4.24582L69.4272 4.69947ZM64.6908 5.40013L65.0224 5.7743L65.0234 5.77348L64.6908 5.40013ZM59.3843 9.65089L59.0191 9.99242L59.32 10.3141L59.6771 10.0562L59.3843 9.65089ZM13.6548 9.65079L13.3639 10.0574L13.7222 10.3138L14.0216 9.99056L13.6548 9.65079ZM8.30173 5.40009L7.96914 5.77345L7.97157 5.77558L8.30173 5.40009ZM3.56528 4.69943L3.76832 5.15642L3.77552 5.15308L3.56528 4.69943ZM0.996247 8.68855H1.49626L1.49623 8.68435L0.996247 8.68855ZM0.996247 67.6092H0.496246L0.496248 67.6103L0.996247 67.6092ZM5.38695 72L5.38587 72.5H5.38695V72ZM67.6055 72V72.5H67.6066L67.6055 72ZM71.9963 67.6092L72.4963 67.6103V67.6092H71.9963ZM71.9963 8.68855L71.4963 8.68437V8.68855H71.9963ZM69.4272 4.69945L69.6293 4.24212L69.2242 5.15639L69.4272 4.69945ZM56.2453 11.7154L56.5084 12.1406L57.043 11.8099L56.6005 11.3634L56.2453 11.7154ZM16.7469 11.7154L16.391 11.3642L15.9505 11.8107L16.4838 12.1406L16.7469 11.7154ZM68.26 67.6092L67.76 67.6087V67.6092H68.26ZM4.73358 67.6092H4.23358H4.73358ZM4.73358 8.68856H5.23358V8.67712L5.23306 8.66569L4.73358 8.68856ZM5.10726 8.1L5.29905 8.56176L5.32818 8.54966L5.35557 8.53399L5.10726 8.1ZM5.39687 8.00658L5.40907 7.50673L5.37684 7.50594L5.34476 7.5093L5.39687 8.00658ZM5.83595 8.18408L5.49725 8.5521L5.50675 8.56041L5.83595 8.18408ZM11.4412 12.6029L11.1522 13.0109L11.1618 13.0177L11.1718 13.0241L11.4412 12.6029ZM14.5148 14.6675L14.2519 15.0928L14.2764 15.108L14.3025 15.1202L14.5148 14.6675ZM58.5348 14.6675L58.5344 15.1675L58.6767 15.1676L58.7977 15.0928L58.5348 14.6675ZM61.6177 12.6123L61.907 13.0201L61.9086 13.019L61.6177 12.6123ZM67.223 8.1841L67.5512 8.56132L67.5579 8.5555L67.5644 8.54944L67.223 8.1841ZM67.9517 8.07199L67.7359 8.52304L67.7478 8.52871L67.7599 8.53375L67.9517 8.07199ZM68.3254 8.66055L67.8259 8.63768L67.8254 8.64883L67.8254 8.65999L68.3254 8.66055ZM69.6375 4.24582C67.8793 3.431 65.8052 3.73782 64.3582 5.02678L65.0234 5.77348C66.1728 4.74959 67.8204 4.50586 69.217 5.15312L69.6375 4.24582ZM64.3591 5.02597C62.6745 6.51921 60.9165 7.92748 59.0916 9.24556L59.6771 10.0562C61.5289 8.71868 63.313 7.2896 65.0224 5.7743L64.3591 5.02597ZM59.7495 9.30937C54.778 3.99342 46.1982 0.5 36.4963 0.5V1.5C45.9831 1.5 54.2751 4.91973 59.0191 9.99242L59.7495 9.30937ZM36.4963 0.5C26.7951 0.5 18.2138 3.99308 13.288 9.31102L14.0216 9.99056C18.7182 4.92008 27.0088 1.5 36.4963 1.5V0.5ZM13.9457 9.24413C12.105 7.92733 10.3315 6.51905 8.63189 5.0246L7.97157 5.77558C9.69631 7.29211 11.496 8.72119 13.3639 10.0574L13.9457 9.24413ZM8.63431 5.02674C7.18735 3.73778 5.11321 3.43095 3.35503 4.24578L3.77552 5.15308C5.17214 4.50582 6.81975 4.74955 7.96915 5.77344L8.63431 5.02674ZM3.36227 4.2425C1.60595 5.02282 0.480134 6.77096 0.496265 8.69275L1.49623 8.68435C1.48344 7.16083 2.37595 5.77497 3.76829 5.15636L3.36227 4.2425ZM0.496247 8.68855V67.6092H1.49625V8.68855H0.496247ZM0.496248 67.6103C0.501915 70.3083 2.68773 72.4942 5.38587 72.5L5.38802 71.5C3.24049 71.4954 1.50076 69.7556 1.49625 67.6082L0.496248 67.6103ZM5.38695 72.5H67.6055V71.5H5.38695V72.5ZM67.6066 72.5C70.3047 72.4943 72.4906 70.3084 72.4963 67.6103L71.4963 67.6082C71.4918 69.7557 69.752 71.4954 67.6045 71.5L67.6066 72.5ZM72.4963 67.6092V8.68855H71.4963V67.6092H72.4963ZM72.4963 8.69273C72.5124 6.77089 71.3865 5.02279 69.6302 4.24251L69.2242 5.15639C70.6165 5.77496 71.5091 7.16079 71.4963 8.68437L72.4963 8.69273ZM69.2251 5.15678L69.2251 5.1568L69.6293 4.24215L69.6293 4.24212L69.2251 5.15678ZM36.4961 5.23685C44.7046 5.23685 51.8686 8.00939 55.8902 12.0674L56.6005 11.3634C52.345 7.06956 44.898 4.23685 36.4961 4.23685V5.23685ZM55.9823 11.2902C49.4321 15.3425 42.9545 17.3532 36.4961 17.3532C30.0378 17.3532 23.5602 15.3425 17.01 11.2902L16.4838 12.1406C23.162 16.272 29.8194 18.3532 36.4961 18.3532C43.1728 18.3532 49.8302 16.272 56.5084 12.1406L55.9823 11.2902ZM17.1028 12.0666C21.1237 7.99125 28.2867 5.23685 36.4961 5.23685V4.23685C28.0953 4.23685 20.6472 7.05034 16.391 11.3642L17.1028 12.0666ZM67.76 67.6092C67.76 67.6943 67.691 67.7632 67.606 67.7632V68.7632C68.2433 68.7632 68.76 68.2465 68.76 67.6092H67.76ZM67.606 67.7632H5.38753V68.7632H67.606V67.7632ZM5.38753 67.7632C5.3025 67.7632 5.23358 67.6942 5.23358 67.6092H4.23358C4.23358 68.2465 4.75022 68.7632 5.38753 68.7632V67.7632ZM5.23358 67.6092V8.68856H4.23358V67.6092H5.23358ZM5.23306 8.66569C5.23099 8.62062 5.25737 8.57907 5.29905 8.56176L4.91548 7.63825C4.48517 7.81697 4.2128 8.24596 4.2341 8.71142L5.23306 8.66569ZM5.35557 8.53399C5.38427 8.51757 5.41608 8.50731 5.44897 8.50386L5.34476 7.5093C5.1737 7.52723 5.00825 7.5806 4.85896 7.66602L5.35557 8.53399ZM5.38466 8.50643C5.42651 8.50745 5.46656 8.52364 5.49736 8.55199L6.17454 7.81617C5.96533 7.62364 5.6933 7.51367 5.40907 7.50673L5.38466 8.50643ZM5.50675 8.56041C7.31149 10.1391 9.19575 11.6245 11.1522 13.0109L11.7303 12.195C9.80172 10.8283 7.94424 9.36402 6.16515 7.80775L5.50675 8.56041ZM11.1718 13.0241C13.7699 14.6863 15.1945 15.6053 15.8868 16.0592C16.0598 16.1726 16.1857 16.2561 16.2722 16.3144C16.369 16.3797 16.3961 16.4001 16.3918 16.3965C16.3893 16.3945 16.3798 16.3867 16.3677 16.375C16.3616 16.3692 16.3506 16.3582 16.3377 16.3432C16.3282 16.3322 16.3 16.2991 16.2742 16.2498C16.2653 16.2328 16.1631 16.0496 16.2555 15.8269C16.3696 15.5519 16.6331 15.5232 16.6851 15.5199C16.7595 15.5151 16.8166 15.5288 16.8318 15.5324C16.8552 15.538 16.8731 15.5441 16.8821 15.5474C16.9219 15.5616 16.947 15.5776 16.9164 15.5607C16.886 15.5439 16.8287 15.5105 16.7462 15.4611C16.4211 15.2666 15.8028 14.8839 15.3266 14.5874C15.0892 14.4396 14.8888 14.3142 14.7802 14.2459C14.753 14.2288 14.732 14.2156 14.7179 14.2066C14.7106 14.202 14.706 14.199 14.7034 14.1973C14.6837 14.1846 14.7121 14.202 14.737 14.2219C14.7517 14.2341 14.8253 14.313 14.872 14.3885C14.8424 14.8879 14.3177 15.1009 14.2431 15.0783C14.2264 15.0714 14.2028 15.0605 14.1958 15.0569C14.192 15.0549 14.1857 15.0515 14.1833 15.0503C14.179 15.0479 14.1759 15.0461 14.1752 15.0457C14.1749 15.0455 14.1741 15.045 14.1739 15.0449C14.1739 15.0449 14.1734 15.0446 14.1735 15.0446C14.1735 15.0446 14.1737 15.0447 14.1742 15.0451C14.1748 15.0454 14.1755 15.0459 14.1765 15.0465C14.1785 15.0476 14.1811 15.0492 14.1844 15.0513C14.1979 15.0595 14.2199 15.0731 14.2519 15.0928L14.7777 14.2422C14.7454 14.2223 14.7216 14.2076 14.7057 14.1979C14.6982 14.1933 14.6908 14.1888 14.6849 14.1853C14.6833 14.1843 14.6762 14.1801 14.6681 14.1756C14.6654 14.1741 14.6588 14.1706 14.6547 14.1685C14.6475 14.1648 14.6238 14.1538 14.607 14.1469C14.5323 14.1242 14.0076 14.3373 13.978 14.8366C14.0247 14.9122 14.0983 14.9912 14.1132 15.0035C14.1198 15.0087 14.1302 15.0165 14.1341 15.0193C14.1366 15.0211 14.1408 15.024 14.1426 15.0253C14.1463 15.0278 14.1494 15.0299 14.1511 15.031C14.1547 15.0334 14.1583 15.0357 14.161 15.0374C14.1667 15.0411 14.1738 15.0457 14.1817 15.0507C14.1977 15.0608 14.2201 15.075 14.2476 15.0923C14.3581 15.1618 14.56 15.2881 14.7981 15.4363C15.273 15.732 15.8988 16.1194 16.2328 16.3192C16.315 16.3685 16.3859 16.4101 16.4334 16.4363C16.4417 16.4409 16.4932 16.4703 16.545 16.4888C16.5556 16.4926 16.5748 16.4991 16.5992 16.505C16.6155 16.5089 16.6734 16.5226 16.7484 16.5178C16.8009 16.5145 17.0648 16.4855 17.1791 16.2102C17.2717 15.9872 17.1693 15.8036 17.1601 15.7859C17.134 15.736 17.1052 15.7021 17.0949 15.6901C17.0812 15.6742 17.0691 15.6622 17.0618 15.6551C17.0471 15.6409 17.034 15.63 17.027 15.6242C16.9635 15.572 16.7662 15.4399 16.435 15.2228C15.7374 14.7655 14.3084 13.8437 11.7107 12.1817L11.1718 13.0241ZM14.5148 14.6675C14.3025 15.1202 14.3026 15.1203 14.3028 15.1203C14.3029 15.1204 14.3031 15.1205 14.3033 15.1206C14.3038 15.1208 14.3046 15.1212 14.3055 15.1216C14.3074 15.1225 14.3102 15.1238 14.3138 15.1255C14.3211 15.1289 14.3319 15.134 14.3462 15.1406C14.3746 15.1538 14.4167 15.1733 14.4718 15.1987C14.5819 15.2495 14.744 15.3239 14.9526 15.4183C15.37 15.6072 15.9737 15.8768 16.721 16.2002C18.2151 16.8467 20.2847 17.7089 22.5861 18.5713C27.1615 20.2858 32.7445 22.0372 36.5252 22.034L36.5244 21.034C32.9498 21.037 27.5278 19.3551 22.937 17.6349C20.6553 16.7799 18.6015 15.9243 17.1181 15.2824C16.3765 14.9615 15.7779 14.6942 15.3651 14.5073C15.1587 14.4139 14.9987 14.3405 14.8906 14.2907C14.8365 14.2657 14.7954 14.2467 14.768 14.2339C14.7542 14.2275 14.7439 14.2227 14.7371 14.2195C14.7336 14.2179 14.7311 14.2167 14.7294 14.2159C14.7286 14.2155 14.728 14.2152 14.7276 14.2151C14.7274 14.215 14.7273 14.2149 14.7272 14.2149C14.7271 14.2148 14.7271 14.2148 14.5148 14.6675ZM36.5252 22.034C40.3353 22.0307 44.1047 20.2531 47.742 18.5488C51.4318 16.82 54.9895 15.1645 58.5344 15.1675L58.5353 14.1675C54.7248 14.1643 50.9552 15.9389 47.3177 17.6433C43.6277 19.3723 40.0697 21.031 36.5244 21.034L36.5252 22.034ZM58.7977 15.0928C59.8364 14.4508 60.8729 13.7533 61.907 13.0201L61.3285 12.2044C60.3073 12.9285 59.2886 13.6137 58.2719 14.2422L58.7977 15.0928ZM61.9086 13.019C63.7896 11.674 65.6705 10.1975 67.5512 8.56132L66.8948 7.80688C65.0386 9.42176 63.1827 10.8786 61.3269 12.2055L61.9086 13.019ZM67.5644 8.54944C67.6107 8.50617 67.6788 8.4957 67.7359 8.52304L68.1675 7.62095C67.739 7.41598 67.2287 7.49448 66.8816 7.81877L67.5644 8.54944ZM67.7599 8.53375C67.8016 8.55106 67.828 8.59261 67.8259 8.63768L68.8249 8.68341C68.8462 8.21795 68.5738 7.78896 68.1435 7.61024L67.7599 8.53375ZM67.8254 8.65999L67.76 67.6087L68.76 67.6098L68.8254 8.6611L67.8254 8.65999Z" fill="#08862D"/>
</svg>

